<svg width="800" height="800" viewBox="0 -6 36 36" xmlns="http://www.w3.org/2000/svg"><g data-name="Lager 83" transform="translate(2 -4)"><g data-name="Path 90" fill="none" stroke-miterlimit="10"><path d="M34 19v-3C23.1 32 8.9 32-2 16v3-3C8.9 0 23.1 0 34 16v3Z"/><path d="M16 24c2.361 0 4.753-.787 7.108-2.34 2.046-1.348 4.036-3.246 5.939-5.66-1.903-2.414-3.893-4.312-5.939-5.66C20.753 8.787 18.361 8 16 8c-2.361 0-4.753.787-7.108 2.34-2.046 1.348-4.036 3.246-5.939 5.66 1.903 2.414 3.893 4.312 5.939 5.66C11.247 23.213 13.639 24 16 24m0 4C9.725 28 3.45 24-2 16 3.45 8 9.725 4 16 4s12.55 4 18 12c-5.45 8-11.725 12-18 12Zm18-9v-3 3Zm-36 0v-3 3Z" fill="#161615"/></g><circle data-name="Ellipse 9" cx="4" cy="4" r="4" transform="translate(12 12)" fill="#161615"/></g></svg>